<svg viewBox="-546.5 -336.5 1093 673" width="1093" height="673" style="background-color: rgb(255, 255, 255);" xmlns="http://www.w3.org/2000/svg"><path d="M399.1602676509476,56.287399709814984L399.1602676509476,147.0302335961779M399.1602676509476,56.287399709814984L392.8920122989789,54.45680090224873M399.1602676509476,56.287399709814984L406.20458916491515,54.65847622157235" style="fill:none;stroke:rgb(0,0,0);stroke-width:1;stroke-linecap:round"></path><path d="M406.20458916491515,54.65847622157235L399.1602676509476,56.287399709814984L392.8920122989789,54.45680090224875z" style="fill:rgb(238,238,238); fill-opacity: 0.4"></path><path d="M399.9363338129465,52.8278774140061L406.20458916491515,54.65847622157235M406.20458916491515,54.65847622157235L406.20458916491515,145.40131010793525M392.8920122989789,54.45680090224873L392.8920122989789,145.19963478861163M392.8920122989789,54.45680090224873L399.9363338129465,52.8278774140061" style="fill:none;stroke:rgb(0,0,0);stroke-width:1;stroke-linecap:round"></path><path d="M399.9363338129465,52.827877414006124L406.20458916491515,54.65847622157235L392.8920122989789,54.45680090224875zM399.1602676509476,56.287399709814984L399.1602676509475,147.03023359617788L392.8920122989789,54.45680090224875zM406.20458916491515,54.65847622157235L406.2045891649151,145.40131010793525L399.1602676509476,56.287399709814984z" style="fill:rgb(238,238,238); fill-opacity: 0.4"></path><path d="M399.9363338129465,52.8278774140061L399.9363338129465,143.57071130036903" style="fill:none;stroke:rgb(0,0,0);stroke-width:1;stroke-linecap:round"></path><path d="M392.8920122989789,54.45680090224875L392.89201229897884,145.19963478861166L399.9363338129465,52.827877414006124zM406.2045891649151,145.40131010793525L399.1602676509475,147.03023359617788L399.1602676509476,56.287399709814984zM399.9363338129465,52.827877414006124L399.9363338129464,143.57071130036903L406.20458916491515,54.65847622157235zM399.1602676509475,147.03023359617788L392.89201229897884,145.19963478861166L392.8920122989789,54.45680090224875z" style="fill:rgb(238,238,238); fill-opacity: 0.4"></path><path d="M399.1602676509476,147.0302335961779L392.8920122989789,145.19963478861163M399.1602676509476,147.0302335961779L406.20458916491515,145.40131010793525" style="fill:none;stroke:rgb(0,0,0);stroke-width:1;stroke-linecap:round"></path><path d="M399.9363338129464,143.57071130036903L406.2045891649151,145.40131010793525L406.20458916491515,54.65847622157235z" style="fill:rgb(238,238,238); fill-opacity: 0.4"></path><path d="M374.8056505432794,44.4663135750356L374.8056505432794,144.62613886878097M374.8056505432794,44.4663135750356L368.53739519131074,42.63571476746935M374.8056505432794,44.4663135750356L381.84997205724693,42.83739008679297" style="fill:none;stroke:rgb(0,0,0);stroke-width:1;stroke-linecap:round"></path><path d="M392.89201229897884,145.19963478861166L399.9363338129464,143.57071130036903L399.9363338129465,52.827877414006124z" style="fill:rgb(238,238,238); fill-opacity: 0.4"></path><path d="M387.9876806193543,94.67743552308572L387.06471653945573,98.56258830681901L389.4810677182873,96.98899264621232zM390.97445481722036,93.98677615506365L391.89741889711894,97.44507793105403L395.50985497592853,98.74965652239635zM391.89741889711894,97.44507793105403L389.4810677182873,100.27308531503918L395.50985497592853,98.74965652239635zM390.97445481722036,93.98677615506365L387.9876806193543,94.67743552308572L389.4810677182873,96.98899264621232zM387.06471653945573,98.56258830681901L389.4810677182873,100.27308531503918L389.4810677182873,96.98899264621232z" style="fill:rgb(0,0,0)"></path><path d="M381.84997205724693,42.83739008679297L374.8056505432794,44.4663135750356L368.53739519131074,42.63571476746935z" style="fill:rgb(238,238,238); fill-opacity: 0.4"></path><path d="M379.2321293802973,93.99586405669947L389.4810677182873,96.98899264621232M399.9363338129465,143.57071130036903L406.20458916491515,145.40131010793525" style="fill:none;stroke:rgb(0,0,0);stroke-width:1;stroke-linecap:round"></path><path d="M391.89741889711894,97.44507793105403L390.97445481722036,93.98677615506365L389.4810677182873,96.98899264621232zM389.4810677182873,100.27308531503918L391.89741889711894,97.44507793105403L389.4810677182873,96.98899264621232z" style="fill:rgb(0,0,0)"></path><path d="M406.2045891649151,145.40131010793525L399.9363338129464,143.57071130036903L399.1602676509475,147.03023359617788zM399.9363338129464,143.57071130036903L392.89201229897884,145.19963478861166L399.1602676509475,147.03023359617788z" style="fill:rgb(238,238,238); fill-opacity: 0.4"></path><path d="M375.58171670527827,41.006791279226725L381.84997205724693,42.83739008679297M381.84997205724693,42.83739008679297L381.84997205724693,142.9972153805383M392.8920122989789,145.19963478861163L399.9363338129465,143.57071130036903M368.53739519131074,42.63571476746935L368.53739519131074,142.7955400612147M368.53739519131074,42.63571476746935L375.58171670527827,41.006791279226725" style="fill:none;stroke:rgb(0,0,0);stroke-width:1;stroke-linecap:round"></path><path d="M375.58171670527827,41.006791279226725L381.84997205724693,42.83739008679297L368.53739519131074,42.63571476746935zM374.8056505432794,44.4663135750356L374.80565054327934,144.62613886878094L368.53739519131074,42.63571476746935z" style="fill:rgb(238,238,238); fill-opacity: 0.4"></path><path d="M393.0823180620203,144.34313759830724h13.603741419997887v6.801870709999044h-13.603741419997887z" style="fill:rgb(255,255,255)"></path><path d="M375.58171670527827,41.006791279226725L375.58171670527827,141.1666165729721" style="fill:none;stroke:rgb(0,0,0);stroke-width:1;stroke-linecap:round"></path><path d="M381.84997205724693,42.83739008679297L381.8499720572469,142.9972153805383L374.8056505432794,44.4663135750356zM368.53739519131074,42.63571476746935L368.53739519131074,142.7955400612147L375.58171670527827,41.006791279226725zM375.58171670527827,41.006791279226725L375.5817167052782,141.16661657297206L381.84997205724693,42.83739008679297zM381.8499720572469,142.9972153805383L374.80565054327934,144.62613886878094L374.8056505432794,44.4663135750356zM374.80565054327934,144.62613886878094L368.53739519131074,142.7955400612147L368.53739519131074,42.63571476746935zM375.5817167052782,141.16661657297206L381.8499720572469,142.9972153805383L381.84997205724693,42.83739008679297z" style="fill:rgb(238,238,238); fill-opacity: 0.4"></path><path d="M350.4510334356112,37.35372314394743L350.4510334356112,137.51354843769278M350.4510334356112,37.35372314394743L344.1827780836425,35.52312433638117M350.4510334356112,37.35372314394743L357.49535494957877,35.72479965570479M374.8056505432794,144.62613886878097L368.53739519131074,142.7955400612147M374.8056505432794,144.62613886878097L381.84997205724693,142.9972153805383" style="fill:none;stroke:rgb(0,0,0);stroke-width:1;stroke-linecap:round"></path><path d="M368.53739519131074,142.7955400612147L375.5817167052782,141.16661657297206L375.58171670527827,41.006791279226725z" style="fill:rgb(238,238,238); fill-opacity: 0.4"></path><path d="M363.6330635116861,87.56484509199755L362.7100994317875,91.44999787573086L365.12645061061914,89.87640221512416zM366.61983770955214,86.8741857239755L367.5428017894507,90.33248749996588L371.1552378682604,91.6370660913082zM367.5428017894507,90.33248749996588L365.12645061061914,93.16049488395103L371.1552378682604,91.6370660913082zM366.61983770955214,86.8741857239755L363.6330635116861,87.56484509199755L365.12645061061914,89.87640221512416zM362.7100994317875,91.44999787573086L365.12645061061914,93.16049488395103L365.12645061061914,89.87640221512416z" style="fill:rgb(0,0,0)"></path><path d="M357.49535494957877,35.72479965570481L350.4510334356112,37.353723143947434L344.1827780836425,35.52312433638119z" style="fill:rgb(238,238,238); fill-opacity: 0.4"></path><path d="M354.87751227262913,86.88327362561131L365.12645061061914,89.87640221512416" style="fill:none;stroke:rgb(0,0,0);stroke-width:1;stroke-linecap:round"></path><path d="M367.5428017894507,90.33248749996588L366.61983770955214,86.8741857239755L365.12645061061914,89.87640221512416zM365.12645061061914,93.16049488395103L367.5428017894507,90.33248749996588L365.12645061061914,89.87640221512416z" style="fill:rgb(0,0,0)"></path><path d="M351.22709959761005,33.894200848138546L357.49535494957877,35.72479965570479M357.49535494957877,35.72479965570479L357.49535494957877,135.88462494945014M375.58171670527827,141.1666165729721L381.84997205724693,142.9972153805383M344.1827780836425,35.52312433638117L344.1827780836425,135.68294963012653M344.1827780836425,35.52312433638117L351.22709959761005,33.894200848138546" style="fill:none;stroke:rgb(0,0,0);stroke-width:1;stroke-linecap:round"></path><path d="M381.8499720572469,142.9972153805383L375.5817167052782,141.16661657297206L374.80565054327934,144.62613886878094zM375.5817167052782,141.16661657297206L368.53739519131074,142.7955400612147L374.80565054327934,144.62613886878094z" style="fill:rgb(238,238,238); fill-opacity: 0.4"></path><path d="M368.53739519131074,142.7955400612147L375.58171670527827,141.1666165729721" style="fill:none;stroke:rgb(0,0,0);stroke-width:1;stroke-linecap:round"></path><path d="M351.22709959761005,33.89420084813856L357.49535494957877,35.72479965570481L344.1827780836425,35.52312433638119zM350.4510334356112,37.353723143947434L350.4510334356112,137.51354843769278L344.1827780836425,35.52312433638119z" style="fill:rgb(238,238,238); fill-opacity: 0.4"></path><path d="M351.22709959761005,33.894200848138546L351.22709959761005,134.05402614188392" style="fill:none;stroke:rgb(0,0,0);stroke-width:1;stroke-linecap:round"></path><path d="M357.49535494957877,35.72479965570481L357.49535494957877,135.88462494945017L350.4510334356112,37.353723143947434z" style="fill:rgb(238,238,238); fill-opacity: 0.4"></path><path d="M368.7277009543521,141.93904085779687h13.603741419997887v6.801870709999044h-13.603741419997887z" style="fill:rgb(255,255,255)"></path><path d="M344.1827780836425,35.52312433638119L344.1827780836425,135.68294963012653L351.22709959761005,33.89420084813856zM351.22709959761005,33.89420084813856L351.22709959761005,134.0540261418839L357.49535494957877,35.72479965570481zM357.49535494957877,135.88462494945017L350.4510334356112,137.51354843769278L350.4510334356112,37.353723143947434zM350.4510334356112,137.51354843769278L344.1827780836425,135.68294963012653L344.1827780836425,35.52312433638119zM351.22709959761005,134.0540261418839L357.49535494957877,135.88462494945017L357.49535494957877,35.72479965570481z" style="fill:rgb(238,238,238); fill-opacity: 0.4"></path><path d="M350.4510334356112,137.51354843769278L344.1827780836425,135.68294963012653M350.4510334356112,137.51354843769278L357.49535494957877,135.88462494945014" style="fill:none;stroke:rgb(0,0,0);stroke-width:1;stroke-linecap:round"></path><path d="M344.1827780836425,135.68294963012653L351.22709959761005,134.0540261418839L351.22709959761005,33.89420084813856z" style="fill:rgb(238,238,238); fill-opacity: 0.4"></path><path d="M339.2784464040179,80.45225466090939L338.35548232411935,84.3374074446427L340.7718335029509,82.76381178403601zM342.2652206018839,79.76159529288732L343.18818468178256,83.21989706887771L346.80062076059215,84.52447566022002zM343.18818468178256,83.21989706887771L340.7718335029509,86.04790445286287L346.80062076059215,84.52447566022002zM342.2652206018839,79.76159529288732L339.2784464040179,80.45225466090939L340.7718335029509,82.76381178403601zM338.35548232411935,84.3374074446427L340.7718335029509,86.04790445286287L340.7718335029509,82.76381178403601z" style="fill:rgb(0,0,0)"></path><path d="M313.4509056517128,64.75808772729941L313.4509056517128,98.45221403392614M313.4509056517128,64.75808772729941L263.3048628359631,50.11329726676945M313.4509056517128,64.75808772729941L339.5179933039652,58.73035442997038M330.5228951649609,79.77068319452314L340.7718335029509,82.76381178403601" style="fill:none;stroke:rgb(0,0,0);stroke-width:1;stroke-linecap:round"></path><path d="M343.18818468178256,83.21989706887771L342.2652206018839,79.76159529288732L340.7718335029509,82.76381178403601zM340.7718335029509,86.04790445286287L343.18818468178256,83.21989706887771L340.7718335029509,82.76381178403601z" style="fill:rgb(0,0,0)"></path><path d="M351.22709959761005,134.05402614188392L357.49535494957877,135.88462494945014" style="fill:none;stroke:rgb(0,0,0);stroke-width:1;stroke-linecap:round"></path><path d="M357.49535494957877,135.88462494945017L351.22709959761005,134.0540261418839L350.4510334356112,137.51354843769278zM351.22709959761005,134.0540261418839L344.1827780836425,135.68294963012653L350.4510334356112,137.51354843769278z" style="fill:rgb(238,238,238); fill-opacity: 0.4"></path><path d="M344.1827780836425,135.68294963012653L351.22709959761005,134.05402614188392M313.4509056517128,98.45221403392614L263.3048628359631,83.80742357339616M313.4509056517128,98.45221403392614L339.5179933039652,92.4244807365971" style="fill:none;stroke:rgb(0,0,0);stroke-width:1;stroke-linecap:round"></path><path d="M344.373083846684,134.8264504267087h13.603741419997887v6.801870709999044h-13.603741419997887z" style="fill:rgb(255,255,255)"></path><path d="M339.5179933039652,92.42448073659709L313.45090565171284,98.45221403392611L313.45090565171284,64.75808772729941zM339.5179933039652,58.73035442997038L339.5179933039652,92.42448073659709L313.45090565171284,64.75808772729941zM313.45090565171284,64.75808772729941L313.45090565171284,98.45221403392611L263.3048628359631,50.11329726676945z" style="fill:rgb(238,238,238); fill-opacity: 0.4"></path><path d="M289.37195048821553,44.085563969440415L339.5179933039652,58.73035442997038M339.5179933039652,58.73035442997038L339.5179933039652,92.4244807365971" style="fill:none;stroke:rgb(0,0,0);stroke-width:1;stroke-linecap:round"></path><path d="M339.5179933039652,58.73035442997038L313.45090565171284,64.75808772729941L263.3048628359631,50.11329726676945z" style="fill:rgb(238,238,238); fill-opacity: 0.4"></path><path d="M289.37195048821553,77.77969027606713L339.5179933039652,92.4244807365971" style="fill:none;stroke:rgb(0,0,0);stroke-width:1;stroke-linecap:round"></path><path d="M339.5179933039652,92.42448073659709L289.3719504882155,77.77969027606713L313.45090565171284,98.45221403392611zM313.45090565171284,98.45221403392611L263.3048628359631,83.80742357339616L263.3048628359631,50.11329726676945zM289.3719504882155,77.77969027606713L339.5179933039652,92.42448073659709L339.5179933039652,58.73035442997038zM289.3719504882155,44.085563969440415L339.5179933039652,58.73035442997038L263.3048628359631,50.11329726676945zM289.3719504882155,77.77969027606713L263.3048628359631,83.80742357339616L313.45090565171284,98.45221403392611z" style="fill:rgb(238,238,238); fill-opacity: 0.4"></path><path d="M263.3048628359631,50.11329726676945L263.3048628359631,83.80742357339616M263.3048628359631,50.11329726676945L289.37195048821553,44.085563969440415" style="fill:none;stroke:rgb(0,0,0);stroke-width:1;stroke-linecap:round"></path><path d="M309.6756624203124,83.85841599827356h13.603741419997887v6.801870709999044h-13.603741419997887z" style="fill:rgb(255,255,255)"></path><path d="M289.3719504882155,44.085563969440415L289.3719504882155,77.77969027606713L339.5179933039652,58.73035442997038z" style="fill:rgb(238,238,238); fill-opacity: 0.4"></path><path d="M263.3048628359631,83.80742357339616L289.37195048821553,77.77969027606713" style="fill:none;stroke:rgb(0,0,0);stroke-width:1;stroke-linecap:round"></path><path d="M263.3048628359631,50.11329726676945L263.3048628359631,83.80742357339616L289.3719504882155,44.085563969440415z" style="fill:rgb(238,238,238); fill-opacity: 0.4"></path><path d="M266.8235817550484,38.96528572816122h13.603741419997887v6.801870709999044h-13.603741419997887z" style="fill:rgb(255,255,255)"></path><path d="M245.2185004194772,44.83130545026961L245.2185004194772,78.52543175689634M245.2185004194772,44.83130545026961L191.40576485066734,29.11568379276942M245.2185004194772,44.83130545026961L271.2855880717296,38.80357215294058" style="fill:none;stroke:rgb(0,0,0);stroke-width:1;stroke-linecap:round"></path><path d="M263.3048628359631,83.80742357339616L289.3719504882155,77.77969027606713L289.3719504882155,44.085563969440415z" style="fill:rgb(238,238,238); fill-opacity: 0.4"></path><path d="M289.37195048821553,44.085563969440415L289.37195048821553,77.77969027606713M266.4193482230715,67.47711275609797L286.0301311490005,74.37705401114353M266.4193482230715,71.4180239586902L286.0301311490005,74.37705401114353M269.46819052908234,70.71301200908489L286.0301311490005,74.37705401114353M269.46819052908234,66.77210080649266L286.0301311490005,74.37705401114353M245.2185004194772,78.52543175689634L191.40576485066734,62.80981009939614M245.2185004194772,78.52543175689634L271.2855880717296,72.49769845956729" style="fill:none;stroke:rgb(0,0,0);stroke-width:1;stroke-linecap:round"></path><path d="M282.9059675840658,56.03438116408h13.603741419997887v6.801870709999044h-13.603741419997887z" style="fill:rgb(255,255,255)"></path><path d="M271.2855880717296,72.4976984595673L245.21850041947724,78.52543175689634L245.21850041947724,44.831305450269625zM271.2855880717296,38.80357215294058L271.2855880717296,72.4976984595673L245.21850041947724,44.831305450269625z" style="fill:rgb(238,238,238); fill-opacity: 0.4"></path><path d="M266.4193463143264,71.41802350603997L266.4193463143264,67.47711230344774L286.0301292402554,74.3770535584933zM266.4193463143264,67.47711230344774L269.4681886203372,66.77210035384243L286.0301292402554,74.3770535584933zM269.4681886203372,70.71301155643467L266.4193463143264,71.41802350603997L286.0301292402554,74.3770535584933zM269.4681886203372,66.77210035384243L269.4681886203372,70.71301155643467L286.0301292402554,74.3770535584933z" style="fill:rgb(255,187,187); fill-opacity: 0.4"></path><path d="M217.4728525029197,23.087950495440385L271.2855880717296,38.80357215294058M271.2855880717296,38.80357215294058L271.2855880717296,72.49769845956729" style="fill:none;stroke:rgb(0,0,0);stroke-width:1;stroke-linecap:round"></path><path d="M245.21850041947724,44.831305450269625L245.21850041947724,78.52543175689634L191.40576485066737,29.115683792769428z" style="fill:rgb(238,238,238); fill-opacity: 0.4"></path><path d="M266.4193482230715,67.47711275609797L266.4193482230715,71.4180239586902M266.4193482230715,67.47711275609797L269.46819052908234,66.77210080649266M266.4193456018676,67.47711209537927L266.4193456018676,71.41802329797152M266.4193456018676,67.47711209537927L212.6066100330577,51.76149043787908M266.4193456018676,67.47711209537927L269.46818790787836,66.77210014577396M266.4193482230715,71.4180239586902L269.46819052908234,70.71301200908489M266.4193456018676,71.41802329797152L212.6066100330577,55.70240164047133M266.4193456018676,71.41802329797152L269.46818790787836,70.71301134836621" style="fill:none;stroke:rgb(0,0,0);stroke-width:1;stroke-linecap:round"></path><path d="M271.2855880717296,38.80357215294058L245.21850041947724,44.831305450269625L191.40576485066737,29.115683792769428z" style="fill:rgb(238,238,238); fill-opacity: 0.4"></path><path d="M266.4193463143264,67.47711230344774L266.4193463143264,71.41802350603997L269.4681886203372,70.71301155643467z" style="fill:rgb(255,187,187); fill-opacity: 0.4"></path><path d="M269.46818790787836,70.71301134836621L266.4193456018676,71.41802329797152L266.4193456018676,67.47711209537927z" style="fill:rgb(153,221,255); fill-opacity: 0.4"></path><path d="M266.4193463143264,67.47711230344774L269.4681886203372,70.71301155643467L269.4681886203372,66.77210035384243z" style="fill:rgb(255,187,187); fill-opacity: 0.4"></path><path d="M269.46818790787836,66.77210014577396L269.46818790787836,70.71301134836621L266.4193456018676,67.47711209537927z" style="fill:rgb(153,221,255); fill-opacity: 0.4"></path><path d="M269.46819052908234,70.71301200908489L269.46819052908234,66.77210080649266M215.65545233906846,51.05647848827379L269.46818790787836,66.77210014577396M269.46818790787836,66.77210014577396L269.46818790787836,70.71301134836621M215.65545233906846,54.99738969086602L269.46818790787836,70.71301134836621M217.4728525029197,56.78207680206711L271.2855880717296,72.49769845956729" style="fill:none;stroke:rgb(0,0,0);stroke-width:1;stroke-linecap:round"></path><path d="M271.2855880717296,72.4976984595673L217.47285250291972,56.78207680206711L245.21850041947724,78.52543175689634zM245.21850041947724,78.52543175689634L191.40576485066737,62.809810099396145L191.40576485066737,29.115683792769428z" style="fill:rgb(238,238,238); fill-opacity: 0.4"></path><path d="M266.4193456018676,67.47711209537927L266.4193456018676,71.41802329797152L212.6066100330577,51.761490437879075zM269.46818790787836,66.77210014577396L266.4193456018676,67.47711209537927L212.6066100330577,51.761490437879075zM269.46818790787836,70.71301134836621L215.65545233906846,54.997389690866015L266.4193456018676,71.41802329797152z" style="fill:rgb(153,221,255); fill-opacity: 0.4"></path><path d="M217.47285250291972,56.78207680206711L271.2855880717296,72.4976984595673L271.2855880717296,38.80357215294058z" style="fill:rgb(238,238,238); fill-opacity: 0.4"></path><path d="M215.65545233906846,54.997389690866015L269.46818790787836,70.71301134836621L269.46818790787836,66.77210014577396z" style="fill:rgb(153,221,255); fill-opacity: 0.4"></path><path d="M217.47285250291972,23.08795049544039L271.2855880717296,38.80357215294058L191.40576485066737,29.115683792769428zM217.47285250291972,56.78207680206711L191.40576485066737,62.809810099396145L245.21850041947724,78.52543175689634z" style="fill:rgb(238,238,238); fill-opacity: 0.4"></path><path d="M191.40576485066734,29.11568379276942L191.40576485066734,62.80981009939614M191.40576485066734,29.11568379276942L217.4728525029197,23.087950495440385" style="fill:none;stroke:rgb(0,0,0);stroke-width:1;stroke-linecap:round"></path><path d="M239.60991081154654,63.396218122758654h13.60374141999819v6.801870709999044h-13.60374141999819z" style="fill:rgb(255,255,255)"></path><path d="M217.47285250291972,23.08795049544039L217.47285250291972,56.78207680206711L271.2855880717296,38.80357215294058z" style="fill:rgb(238,238,238); fill-opacity: 0.4"></path><path d="M266.4193456018676,71.41802329797152L212.6066100330577,55.70240164047132L212.6066100330577,51.761490437879075zM215.65545233906846,51.056478488273775L269.46818790787836,66.77210014577396L212.6066100330577,51.761490437879075zM215.65545233906846,54.997389690866015L212.6066100330577,55.70240164047132L266.4193456018676,71.41802329797152z" style="fill:rgb(153,221,255); fill-opacity: 0.4"></path><path d="M191.40576485066734,62.80981009939614L217.4728525029197,56.78207680206711" style="fill:none;stroke:rgb(0,0,0);stroke-width:1;stroke-linecap:round"></path><path d="M215.65545233906846,51.056478488273775L215.65545233906846,54.997389690866015L269.46818790787836,66.77210014577396z" style="fill:rgb(153,221,255); fill-opacity: 0.4"></path><path d="M191.40576485066737,29.115683792769428L191.40576485066737,62.809810099396145L217.47285250291972,23.08795049544039z" style="fill:rgb(238,238,238); fill-opacity: 0.4"></path><path d="M194.9244829883971,17.967672025971982h13.60374141999819v6.801870709999044h-13.60374141999819z" style="fill:rgb(255,255,255)"></path><path d="M185.36065168488227,27.839956231731822L204.97143461081123,34.73989748677739M185.36065168488227,31.780867434324055L204.97143461081123,34.73989748677739M188.409493930318,31.07585549872609L204.97143461081123,34.73989748677739M188.409493930318,27.134944296133845L204.97143461081123,34.73989748677739M173.3194016528261,23.83369174808038L173.3194016528261,57.52781805470709M173.3194016528261,23.83369174808038L119.5066660840162,8.118070090580181M173.3194016528261,23.83369174808038L199.38648930507844,17.80595845075134" style="fill:none;stroke:rgb(0,0,0);stroke-width:1;stroke-linecap:round"></path><path d="M191.40576485066737,62.809810099396145L217.47285250291972,56.78207680206711L217.47285250291972,23.08795049544039z" style="fill:rgb(238,238,238); fill-opacity: 0.4"></path><path d="M217.4728525029197,23.087950495440385L217.4728525029197,56.78207680206711M212.6066100330577,51.76149043787908L212.6066100330577,55.70240164047133M212.6066100330577,51.76149043787908L215.65545233906846,51.05647848827379" style="fill:none;stroke:rgb(0,0,0);stroke-width:1;stroke-linecap:round"></path><path d="M185.3606485834556,31.780866375791938L185.3606485834556,27.839955173199698L204.97143150938453,34.73989642824527z" style="fill:rgb(255,187,187); fill-opacity: 0.4"></path><path d="M212.6066100330577,55.70240164047133L215.65545233906846,54.99738969086602" style="fill:none;stroke:rgb(0,0,0);stroke-width:1;stroke-linecap:round"></path><path d="M185.3606485834556,27.839955173199698L188.40949088946638,27.134943223594394L204.97143150938453,34.73989642824527z" style="fill:rgb(255,187,187); fill-opacity: 0.4"></path><path d="M212.6066100330577,51.761490437879075L212.6066100330577,55.70240164047132L215.65545233906846,51.056478488273775z" style="fill:rgb(153,221,255); fill-opacity: 0.4"></path><path d="M206.31287899493486,52.183964085802444h13.60374141999819v6.801870709999044h-13.60374141999819z" style="fill:rgb(255,255,255)"></path><path d="M188.40949088946638,31.075854426186634L185.3606485834556,31.780866375791938L204.97143150938453,34.73989642824527z" style="fill:rgb(255,187,187); fill-opacity: 0.4"></path><path d="M208.85358091661053,45.68508732390967h13.60374141999819v6.801870709999044h-13.60374141999819z" style="fill:rgb(255,255,255)"></path><path d="M188.40949088946638,27.134943223594394L188.40949088946638,31.075854426186634L204.97143150938453,34.73989642824527z" style="fill:rgb(255,187,187); fill-opacity: 0.4"></path><path d="M212.6066100330577,55.70240164047132L215.65545233906846,54.997389690866015L215.65545233906846,51.056478488273775z" style="fill:rgb(153,221,255); fill-opacity: 0.4"></path><path d="M215.65545233906846,51.05647848827379L215.65545233906846,54.99738969086602M173.3194016528261,57.52781805470709L119.5066660840162,41.8121963972069M173.3194016528261,57.52781805470709L199.38648930507844,51.50008475737807M185.36065168488227,27.839956231731822L185.36065168488227,31.780867434324055M185.36065168488227,27.839956231731822L188.409493930318,27.134944296133845M185.3606478709968,27.839954965131227L185.3606478709968,31.780866167723463M185.3606478709968,27.839954965131227L131.5479123021869,12.12433330763103M185.3606478709968,27.839954965131227L188.40949017700754,27.134943015525927" style="fill:none;stroke:rgb(0,0,0);stroke-width:1;stroke-linecap:round"></path><path d="M211.0068688174145,35.03676746189076h13.60374141999819v6.801870709999044h-13.60374141999819z" style="fill:rgb(255,255,255)"></path><path d="M185.36065168488227,31.780867434324055L188.409493930318,31.07585549872609M185.3606478709968,31.780866167723463L131.5479123021869,16.06524451022327M185.3606478709968,31.780866167723463L188.40949017700754,31.075854218118163" style="fill:none;stroke:rgb(0,0,0);stroke-width:1;stroke-linecap:round"></path><path d="M199.38648930507844,51.500084757378055L173.3194016528261,57.527818054707105L173.3194016528261,23.833691748080373z" style="fill:rgb(238,238,238); fill-opacity: 0.4"></path><path d="M185.3606485834556,27.839955173199698L185.3606485834556,31.780866375791938L188.40949088946638,31.075854426186634z" style="fill:rgb(255,187,187); fill-opacity: 0.4"></path><path d="M188.40949017700754,31.07585421811817L185.36064787099673,31.780866167723463L185.36064787099673,27.839954965131234z" style="fill:rgb(153,221,255); fill-opacity: 0.4"></path><path d="M185.3606485834556,27.839955173199698L188.40949088946638,31.075854426186634L188.40949088946638,27.134943223594394z" style="fill:rgb(255,187,187); fill-opacity: 0.4"></path><path d="M188.40949017700754,27.134943015525927L188.40949017700754,31.07585421811817L185.36064787099673,27.839954965131234z" style="fill:rgb(153,221,255); fill-opacity: 0.4"></path><path d="M188.409493930318,31.07585549872609L188.409493930318,27.134944296133845M134.5967546081977,11.419321358025728L188.40949017700754,27.134943015525927M188.40949017700754,27.134943015525927L188.40949017700754,31.075854218118163M134.5967546081977,15.360232560617966L188.40949017700754,31.075854218118163" style="fill:none;stroke:rgb(0,0,0);stroke-width:1;stroke-linecap:round"></path><path d="M199.38648930507844,17.80595845075134L199.38648930507844,51.500084757378055L173.3194016528261,23.833691748080373z" style="fill:rgb(238,238,238); fill-opacity: 0.4"></path><path d="M145.57375373626857,2.090336793251145L199.38648930507844,17.80595845075134M199.38648930507844,17.80595845075134L199.38648930507844,51.50008475737807" style="fill:none;stroke:rgb(0,0,0);stroke-width:1;stroke-linecap:round"></path><path d="M173.3194016528261,23.833691748080373L173.3194016528261,57.527818054707105L119.5066660840162,8.11807009058018zM199.38648930507844,17.80595845075134L173.3194016528261,23.833691748080373L119.5066660840162,8.11807009058018z" style="fill:rgb(238,238,238); fill-opacity: 0.4"></path><path d="M145.57375373626857,35.78446309987786L199.38648930507844,51.50008475737807" style="fill:none;stroke:rgb(0,0,0);stroke-width:1;stroke-linecap:round"></path><path d="M185.36064787099673,27.839954965131234L185.36064787099673,31.780866167723463L131.54791230218686,12.124333307631035zM188.40949017700754,27.134943015525927L185.36064787099673,27.839954965131234L131.54791230218686,12.124333307631035zM188.40949017700754,31.07585421811817L134.59675460819767,15.36023256061797L185.36064787099673,31.780866167723463zM134.59675460819767,15.36023256061797L188.40949017700754,31.07585421811817L188.40949017700754,27.134943015525927z" style="fill:rgb(153,221,255); fill-opacity: 0.4"></path><path d="M199.38648930507844,51.500084757378055L145.57375373626857,35.784463099877854L173.3194016528261,57.527818054707105zM173.3194016528261,57.527818054707105L119.5066660840162,41.81219639720689L119.5066660840162,8.11807009058018zM145.57375373626857,35.784463099877854L199.38648930507844,51.500084757378055L199.38648930507844,17.80595845075134z" style="fill:rgb(238,238,238); fill-opacity: 0.4"></path><path d="M185.36064787099673,31.780866167723463L131.54791230218686,16.06524451022327L131.54791230218686,12.124333307631035zM134.59675460819767,11.419321358025728L188.40949017700754,27.134943015525927L131.54791230218686,12.124333307631035zM134.59675460819767,15.36023256061797L131.54791230218686,16.06524451022327L185.36064787099673,31.780866167723463z" style="fill:rgb(153,221,255); fill-opacity: 0.4"></path><path d="M145.57375373626857,2.090336793251144L199.38648930507844,17.80595845075134L119.5066660840162,8.11807009058018z" style="fill:rgb(238,238,238); fill-opacity: 0.4"></path><path d="M134.59675460819767,11.419321358025728L134.59675460819767,15.36023256061797L188.40949017700754,27.134943015525927z" style="fill:rgb(153,221,255); fill-opacity: 0.4"></path><path d="M145.57375373626857,35.784463099877854L119.5066660840162,41.81219639720689L173.3194016528261,57.527818054707105z" style="fill:rgb(238,238,238); fill-opacity: 0.4"></path><path d="M119.5066660840162,8.118070090580181L119.5066660840162,41.8121963972069M119.5066660840162,8.118070090580181L145.57375373626857,2.090336793251145" style="fill:none;stroke:rgb(0,0,0);stroke-width:1;stroke-linecap:round"></path><path d="M167.7108120448954,42.3986044205694h13.60374141999819v6.801870709999044h-13.60374141999819z" style="fill:rgb(255,255,255)"></path><path d="M145.57375373626857,2.090336793251144L145.57375373626857,35.784463099877854L199.38648930507844,17.80595845075134z" style="fill:rgb(238,238,238); fill-opacity: 0.4"></path><path d="M119.5066660840162,41.8121963972069L145.57375373626857,35.78446309987786" style="fill:none;stroke:rgb(0,0,0);stroke-width:1;stroke-linecap:round"></path><path d="M119.5066660840162,8.11807009058018L119.5066660840162,41.81219639720689L145.57375373626857,2.090336793251144z" style="fill:rgb(238,238,238); fill-opacity: 0.4"></path><path d="M131.5479123021869,12.12433330763103L131.5479123021869,16.06524451022327M131.5479123021869,12.12433330763103L134.5967546081977,11.419321358025728" style="fill:none;stroke:rgb(0,0,0);stroke-width:1;stroke-linecap:round"></path><path d="M123.025384221746,-3.0299416762172546h13.60374141999804v6.801870709999037h-13.60374141999804z" style="fill:rgb(255,255,255)"></path><path d="M131.5479123021869,16.06524451022327L134.5967546081977,15.360232560617966" style="fill:none;stroke:rgb(0,0,0);stroke-width:1;stroke-linecap:round"></path><path d="M131.54791230218686,12.124333307631035L131.54791230218686,16.06524451022327L134.59675460819767,11.419321358025728z" style="fill:rgb(153,221,255); fill-opacity: 0.4"></path><path d="M125.25418126406414,12.546806955554406h13.60374141999804v6.8018707099990205h-13.60374141999804zM127.7948831857398,6.0479301936616165h13.60374141999804v6.801870709999038h-13.60374141999804z" style="fill:rgb(255,255,255)"></path><path d="M131.54791230218686,16.06524451022327L134.59675460819767,15.36023256061797L134.59675460819767,11.419321358025728z" style="fill:rgb(153,221,255); fill-opacity: 0.4"></path><path d="M134.5967546081977,11.419321358025728L134.5967546081977,15.360232560617966M97.70636858872757,-1.1057194776257178L97.70636858872757,42.18961731397653M97.70636858872757,-1.1057194776257178L47.56032577297786,-15.750509938155682M97.70636858872757,-1.1057194776257178L131.20132639858542,-8.851067756518152M122.30084686241699,-1.6874533626266188L139.83341770740108,8.92449370776575M122.30084686241699,2.2534578399656193L139.83341770740108,8.92449370776575M125.3496891684278,1.548445890360315L139.83341770740108,8.92449370776575M125.3496891684278,-2.392465312231923L139.83341770740108,8.92449370776575" style="fill:none;stroke:rgb(0,0,0);stroke-width:1;stroke-linecap:round"></path><path d="M119.5066660840162,41.81219639720689L145.57375373626857,35.784463099877854L145.57375373626857,2.090336793251144z" style="fill:rgb(238,238,238); fill-opacity: 0.4"></path><path d="M145.57375373626857,2.090336793251145L145.57375373626857,35.78446309987786M97.70636858872757,42.18961731397653L47.56032577297786,27.544826853446562M97.70636858872757,42.18961731397653L131.20132639858542,34.44426903508409" style="fill:none;stroke:rgb(0,0,0);stroke-width:1;stroke-linecap:round"></path><path d="M122.30084772661472,2.2534580525424825L122.30084772661472,-1.687453150049758L139.83341648202529,8.924493417180312zM122.30084772661472,-1.687453150049758L125.34969003262553,-2.3924650996550625L139.83341648202529,8.924493417180312z" style="fill:rgb(255,187,187); fill-opacity: 0.4"></path><path d="M139.10777005076335,14.039153759701524h13.60374141999819v6.801870709999044h-13.60374141999819z" style="fill:rgb(255,255,255)"></path><path d="M131.20132639858542,34.44426903508409L97.70636858872757,42.18961731397653L97.70636858872757,-1.1057194776257178z" style="fill:rgb(238,238,238); fill-opacity: 0.4"></path><path d="M125.34969003262553,1.548446102937178L122.30084772661472,2.2534580525424825L139.83341648202529,8.924493417180312zM125.34969003262553,-2.3924650996550625L125.34969003262553,1.548446102937178L139.83341648202529,8.924493417180312z" style="fill:rgb(255,187,187); fill-opacity: 0.4"></path><path d="M97.70636858872757,-1.1057194776257178L97.70636858872757,42.18961731397653L47.56032577297786,-15.750509938155684z" style="fill:rgb(238,238,238); fill-opacity: 0.4"></path><path d="M122.30084779551126,-1.6874531299290259L122.30084779551126,2.2534580726632134M122.30084779551126,-1.6874531299290259L72.15480497976154,-16.332243590458987M122.30084779551126,-1.6874531299290259L125.34969010152207,-2.3924650795343294M122.30084686241699,-1.6874533626266188L122.30084686241699,2.2534578399656193M122.30084686241699,-1.6874533626266188L125.3496891684278,-2.392465312231923" style="fill:none;stroke:rgb(0,0,0);stroke-width:1;stroke-linecap:round"></path><path d="M131.20132639858542,-8.851067756518153L131.20132639858542,34.44426903508409L97.70636858872757,-1.1057194776257178z" style="fill:rgb(238,238,238); fill-opacity: 0.4"></path><path d="M122.30084779551126,2.2534580726632134L72.15480497976154,-12.39133238786675M122.30084779551126,2.2534580726632134L125.34969010152207,1.5484461230579103M122.30084686241699,2.2534578399656193L125.3496891684278,1.548445890360315" style="fill:none;stroke:rgb(0,0,0);stroke-width:1;stroke-linecap:round"></path><path d="M125.34969010152206,1.5484461230579138L122.30084779551125,2.2534580726632183L122.30084779551125,-1.6874531299290223z" style="fill:rgb(153,221,255); fill-opacity: 0.4"></path><path d="M122.30084772661472,-1.687453150049758L122.30084772661472,2.2534580525424825L125.34969003262553,1.548446102937178z" style="fill:rgb(255,187,187); fill-opacity: 0.4"></path><path d="M125.34969010152206,-2.3924650795343267L125.34969010152206,1.5484461230579138L122.30084779551125,-1.6874531299290223z" style="fill:rgb(153,221,255); fill-opacity: 0.4"></path><path d="M122.30084772661472,-1.687453150049758L125.34969003262553,1.548446102937178L125.34969003262553,-2.3924650996550625z" style="fill:rgb(255,187,187); fill-opacity: 0.4"></path><path d="M75.20364728577235,-17.03725554006429L125.34969010152207,-2.3924650795343294M125.34969010152207,-2.3924650795343294L125.34969010152207,1.5484461230579103M125.3496891684278,1.548445890360315L125.3496891684278,-2.392465312231923M75.20364728577235,-13.096344337472052L125.34969010152207,1.5484461230579103" style="fill:none;stroke:rgb(0,0,0);stroke-width:1;stroke-linecap:round"></path><path d="M131.20132639858542,-8.851067756518153L97.70636858872757,-1.1057194776257178L47.56032577297786,-15.750509938155684z" style="fill:rgb(238,238,238); fill-opacity: 0.4"></path><path d="M81.0552835828357,-23.495858217048117L131.20132639858542,-8.851067756518152M131.20132639858542,-8.851067756518152L131.20132639858542,34.44426903508409M81.0552835828357,19.799478574554122L131.20132639858542,34.44426903508409" style="fill:none;stroke:rgb(0,0,0);stroke-width:1;stroke-linecap:round"></path><path d="M122.30084779551125,-1.6874531299290223L122.30084779551125,2.2534580726632183L72.15480497976154,-16.332243590458983zM125.34969010152206,-2.3924650795343267L122.30084779551125,-1.6874531299290223L72.15480497976154,-16.332243590458983zM125.34969010152206,1.5484461230579138L75.20364728577235,-13.09634433747205L122.30084779551125,2.2534580726632183zM75.20364728577235,-13.09634433747205L125.34969010152206,1.5484461230579138L125.34969010152206,-2.3924650795343267z" style="fill:rgb(153,221,255); fill-opacity: 0.4"></path><path d="M97.70636858872757,42.18961731397653L47.56032577297786,27.544826853446562L47.56032577297786,-15.750509938155684zM131.20132639858542,34.44426903508409L81.0552835828357,19.799478574554122L97.70636858872757,42.18961731397653z" style="fill:rgb(238,238,238); fill-opacity: 0.4"></path><path d="M47.56032577297786,-15.750509938155682L47.56032577297786,27.544826853446562M47.56032577297786,-15.750509938155682L81.0552835828357,-23.495858217048117" style="fill:none;stroke:rgb(0,0,0);stroke-width:1;stroke-linecap:round"></path><path d="M81.0552835828357,19.799478574554122L131.20132639858542,34.44426903508409L131.20132639858542,-8.851067756518153zM81.0552835828357,-23.495858217048117L131.20132639858542,-8.851067756518153L47.56032577297786,-15.750509938155684zM81.0552835828357,19.799478574554122L47.56032577297786,27.544826853446562L97.70636858872757,42.18961731397653z" style="fill:rgb(238,238,238); fill-opacity: 0.4"></path><path d="M122.30084779551125,2.2534580726632183L72.15480497976154,-12.391332387866747L72.15480497976154,-16.332243590458983zM75.20364728577235,-17.03725554006429L125.34969010152206,-2.3924650795343267L72.15480497976154,-16.332243590458983zM75.20364728577235,-13.09634433747205L72.15480497976154,-12.391332387866747L122.30084779551125,2.2534580726632183zM75.20364728577235,-17.03725554006429L75.20364728577235,-13.09634433747205L125.34969010152206,-2.3924650795343267z" style="fill:rgb(153,221,255); fill-opacity: 0.4"></path><path d="M47.56032577297786,27.544826853446562L81.0552835828357,19.799478574554122" style="fill:none;stroke:rgb(0,0,0);stroke-width:1;stroke-linecap:round"></path><path d="M47.56032577297786,-15.750509938155684L47.56032577297786,27.544826853446562L81.0552835828357,-23.495858217048117zM81.0552835828357,-23.495858217048117L81.0552835828357,19.799478574554122L131.20132639858542,-8.851067756518153z" style="fill:rgb(238,238,238); fill-opacity: 0.4"></path><path d="M25.858563898268855,-24.869719037252576L25.858563898268855,27.772097583449842M25.858563898268855,-24.869719037252576L-15.417662691453442,-36.92414358335025M25.858563898268855,-24.869719037252576L66.58432231497449,-34.287112086381455" style="fill:none;stroke:rgb(0,0,0);stroke-width:1;stroke-linecap:round"></path><path d="M101.35899503109661,25.878203783239663h13.60374141999804v6.801870709999044h-13.60374141999804zM54.79297977086572,-27.757328342142884h13.603741419998116v6.801870709999044h-13.603741419998116z" style="fill:rgb(255,255,255)"></path><path d="M72.15480497976154,-16.332243590458987L72.15480497976154,-12.39133238786675M72.15480497976154,-16.332243590458987L75.20364728577235,-17.03725554006429M72.15480497976154,-12.39133238786675L75.20364728577235,-13.096344337472052" style="fill:none;stroke:rgb(0,0,0);stroke-width:1;stroke-linecap:round"></path><path d="M72.15480497976154,-16.332243590458983L72.15480497976154,-12.391332387866747L75.20364728577235,-17.03725554006429z" style="fill:rgb(153,221,255); fill-opacity: 0.4"></path><path d="M65.86107472299419,-15.909769714346409h13.60374141999804v6.801870709999032h-13.60374141999804zM68.40177664466987,-22.408646476239184h13.60374141999804v6.801870709999032h-13.60374141999804z" style="fill:rgb(255,255,255)"></path><path d="M72.15480497976154,-12.391332387866747L75.20364728577235,-13.09634433747205L75.20364728577235,-17.03725554006429z" style="fill:rgb(153,221,255); fill-opacity: 0.4"></path><path d="M75.20364728577235,-17.03725554006429L75.20364728577235,-13.096344337472052M54.224092811883786,-16.146298765470302L72.97919930646742,-6.358112284086085M54.224092811883786,-9.578113741012054L72.97919930646742,-6.358112284086085M59.30549665523513,-10.753133657020891L72.97919930646742,-6.358112284086085M59.30549665523513,-17.321318681479145L72.97919930646742,-6.358112284086085" style="fill:none;stroke:rgb(0,0,0);stroke-width:1;stroke-linecap:round"></path><path d="M47.56032577297786,27.544826853446562L81.0552835828357,19.799478574554122L81.0552835828357,-23.495858217048117z" style="fill:rgb(238,238,238); fill-opacity: 0.4"></path><path d="M81.0552835828357,-23.495858217048117L81.0552835828357,19.799478574554122M25.858563898268855,27.772097583449842L-15.417662691453442,15.717673037352158M25.858563898268855,27.772097583449842L66.58432231497449,18.354704534320955" style="fill:none;stroke:rgb(0,0,0);stroke-width:1;stroke-linecap:round"></path><path d="M25.85856389826885,-24.869719037252572L25.85856389826885,27.77209758344984L-15.417662691453428,-36.92414358335025zM66.5843223149745,18.354704534320955L25.85856389826885,27.77209758344984L25.85856389826885,-24.869719037252572z" style="fill:rgb(238,238,238); fill-opacity: 0.4"></path><path d="M54.22409169001894,-9.578114021055573L54.22409169001894,-16.146299358709307L72.97919844358292,-6.358112714199401zM54.22409169001894,-16.146299358709307L59.30549553337029,-17.321319274718146L72.97919844358292,-6.358112714199401z" style="fill:rgb(255,187,187); fill-opacity: 0.4"></path><path d="M74.58930019485004,-6.746435668038923h13.60374141999804v6.801870709999035h-13.60374141999804z" style="fill:rgb(255,255,255)"></path><path d="M59.30549553337029,-10.753133937064417L54.22409169001894,-9.578114021055573L72.97919844358292,-6.358112714199401zM59.30549553337029,-17.321319274718146L59.30549553337029,-10.753133937064417L72.97919844358292,-6.358112714199401z" style="fill:rgb(255,187,187); fill-opacity: 0.4"></path><path d="M66.5843223149745,-34.287112086381455L25.85856389826885,-24.869719037252572L-15.417662691453428,-36.92414358335025zM66.5843223149745,-34.287112086381455L66.5843223149745,18.354704534320955L25.85856389826885,-24.869719037252572z" style="fill:rgb(238,238,238); fill-opacity: 0.4"></path><path d="M54.224092811883786,-16.146298765470302L54.224092811883786,-9.578113741012054M54.224092811883786,-16.146298765470302L59.30549665523513,-17.321318681479145M54.22409182276089,-16.146299319942976L54.22409182276089,-9.578113982289244M54.22409182276089,-16.146299319942976L12.94786523303858,-28.200723866040654M54.22409182276089,-16.146299319942976L59.305495666112236,-17.321319235951815M54.224092811883786,-9.578113741012054L59.30549665523513,-10.753133657020891M54.22409182276089,-9.578113982289244L12.94786523303858,-21.63253852838692M54.22409182276089,-9.578113982289244L59.305495666112236,-10.753133898298085" style="fill:none;stroke:rgb(0,0,0);stroke-width:1;stroke-linecap:round"></path><path d="M59.305495666112236,-10.753133898298085L54.22409182276089,-9.578113982289246L54.22409182276089,-16.14629931994298z" style="fill:rgb(153,221,255); fill-opacity: 0.4"></path><path d="M54.22409169001894,-16.146299358709307L54.22409169001894,-9.578114021055573L59.30549553337029,-10.753133937064417z" style="fill:rgb(255,187,187); fill-opacity: 0.4"></path><path d="M59.305495666112236,-17.32131923595182L59.305495666112236,-10.753133898298085L54.22409182276089,-16.14629931994298z" style="fill:rgb(153,221,255); fill-opacity: 0.4"></path><path d="M54.22409169001894,-16.146299358709307L59.30549553337029,-10.753133937064417L59.30549553337029,-17.321319274718146z" style="fill:rgb(255,187,187); fill-opacity: 0.4"></path><path d="M59.30549665523513,-10.753133657020891L59.30549665523513,-17.321318681479145M18.02926907638993,-29.375743782049497L59.305495666112236,-17.321319235951815M59.305495666112236,-17.321319235951815L59.305495666112236,-10.753133898298085M18.02926907638993,-22.80755844439576L59.305495666112236,-10.753133898298085M25.30809572525219,-46.34153663247914L66.58432231497449,-34.287112086381455M66.58432231497449,-34.287112086381455L66.58432231497449,18.354704534320955" style="fill:none;stroke:rgb(0,0,0);stroke-width:1;stroke-linecap:round"></path><path d="M25.85856389826885,27.77209758344984L-15.417662691453428,15.717673037352158L-15.417662691453428,-36.92414358335025z" style="fill:rgb(238,238,238); fill-opacity: 0.4"></path><path d="M54.22409182276089,-16.14629931994298L54.22409182276089,-9.578113982289246L12.947865233038591,-28.20072386604066z" style="fill:rgb(153,221,255); fill-opacity: 0.4"></path><path d="M-15.417662691453442,-36.92414358335025L-15.417662691453442,15.717673037352158M-15.417662691453442,-36.92414358335025L25.30809572525219,-46.34153663247914" style="fill:none;stroke:rgb(0,0,0);stroke-width:1;stroke-linecap:round"></path><path d="M59.305495666112236,-17.32131923595182L54.22409182276089,-16.14629931994298L12.947865233038591,-28.20072386604066zM59.305495666112236,-10.753133898298085L18.029269076389944,-22.807558444395767L54.22409182276089,-9.578113982289246zM18.029269076389944,-22.807558444395767L59.305495666112236,-10.753133898298085L59.305495666112236,-17.32131923595182z" style="fill:rgb(153,221,255); fill-opacity: 0.4"></path><path d="M25.30809572525219,6.300279988223276L66.58432231497449,18.354704534320955" style="fill:none;stroke:rgb(0,0,0);stroke-width:1;stroke-linecap:round"></path><path d="M66.5843223149745,18.354704534320955L25.308095725252194,6.3002799882232745L25.85856389826885,27.77209758344984zM25.308095725252194,-46.34153663247914L66.5843223149745,-34.287112086381455L-15.417662691453428,-36.92414358335025zM25.308095725252194,6.3002799882232745L-15.417662691453428,15.717673037352158L25.85856389826885,27.77209758344984z" style="fill:rgb(238,238,238); fill-opacity: 0.4"></path><path d="M-40.639903254255856,-49.77982484542201L-40.639903254255856,21.309561519693215M-40.639903254255856,-49.77982484542201L-50.5748530841346,-52.68125535368848M-40.639903254255856,-49.77982484542201L14.3576131870546,-62.497408242009996M-15.417662691453442,15.717673037352158L25.30809572525219,6.300279988223276" style="fill:none;stroke:rgb(0,0,0);stroke-width:1;stroke-linecap:round"></path><path d="M25.308095725252194,6.3002799882232745L66.5843223149745,18.354704534320955L66.5843223149745,-34.287112086381455z" style="fill:rgb(238,238,238); fill-opacity: 0.4"></path><path d="M54.22409182276089,-9.578113982289246L12.947865233038591,-21.632538528386927L12.947865233038591,-28.20072386604066z" style="fill:rgb(153,221,255); fill-opacity: 0.4"></path><path d="M-15.417662691453428,-36.92414358335025L-15.417662691453428,15.717673037352158L25.308095725252194,-46.34153663247914z" style="fill:rgb(238,238,238); fill-opacity: 0.4"></path><path d="M18.029269076389944,-29.3757437820495L59.305495666112236,-17.32131923595182L12.947865233038591,-28.20072386604066zM18.029269076389944,-22.807558444395767L12.947865233038591,-21.632538528386927L54.22409182276089,-9.578113982289246zM18.029269076389944,-29.3757437820495L18.029269076389944,-22.807558444395767L59.305495666112236,-17.32131923595182z" style="fill:rgb(153,221,255); fill-opacity: 0.4"></path><path d="M-4.569608326296247,-49.76698413100888h13.603741419998073v6.801870709999044h-13.603741419998073z" style="fill:rgb(255,255,255)"></path><path d="M-40.63990325425587,-49.77982484542203L-40.63990325425587,21.309561519693215L-50.5748530841346,-52.68125535368847z" style="fill:rgb(238,238,238); fill-opacity: 0.4"></path><path d="M-50.5748530841346,-52.68125535368848L-50.5748530841346,18.408131011426768M-50.5748530841346,-52.68125535368848L4.422663357175858,-65.39883875027643" style="fill:none;stroke:rgb(0,0,0);stroke-width:1;stroke-linecap:round"></path><path d="M25.308095725252194,-46.34153663247914L25.308095725252194,6.3002799882232745L66.5843223149745,-34.287112086381455z" style="fill:rgb(238,238,238); fill-opacity: 0.4"></path><path d="M-12.789516575615403,-39.11835322208084L9.34466525005477,-24.63629065784696M-12.789516575615403,-24.66834547924262L9.34466525005477,-24.63629065784696M-1.6104279990923367,-27.253389322476732L9.34466525005477,-24.63629065784696M-1.6104279990923367,-41.70339706531494L9.34466525005477,-24.63629065784696M12.94786523303858,-28.200723866040654L12.94786523303858,-21.63253852838692M12.94786523303858,-28.200723866040654L18.02926907638993,-29.375743782049497" style="fill:none;stroke:rgb(0,0,0);stroke-width:1;stroke-linecap:round"></path><path d="M41.17689888813172,11.083822056749645h13.60374141999804v6.801870709999032h-13.60374141999804z" style="fill:rgb(255,255,255)"></path><path d="M-40.639903254255856,21.309561519693215L-50.5748530841346,18.408131011426768M-40.639903254255856,21.309561519693215L14.3576131870546,8.59197812310525M12.94786523303858,-21.63253852838692L18.02926907638993,-22.80755844439576" style="fill:none;stroke:rgb(0,0,0);stroke-width:1;stroke-linecap:round"></path><path d="M14.3576131870546,-62.49740824200999L-40.63990325425587,-49.77982484542203L-50.5748530841346,-52.68125535368847z" style="fill:rgb(238,238,238); fill-opacity: 0.4"></path><path d="M12.947865233038591,-28.20072386604066L12.947865233038591,-21.632538528386927L18.029269076389944,-29.3757437820495z" style="fill:rgb(153,221,255); fill-opacity: 0.4"></path><path d="M-40.63990325425587,21.309561519693215L-50.5748530841346,18.408131011426764L-50.5748530841346,-52.68125535368847z" style="fill:rgb(238,238,238); fill-opacity: 0.4"></path><path d="M7.670415808786899,-25.385979819422765h13.603741419998077v6.801870709999044h-13.603741419998077z" style="fill:rgb(255,255,255)"></path><path d="M12.947865233038591,-21.632538528386927L18.029269076389944,-22.807558444395767L18.029269076389944,-29.3757437820495z" style="fill:rgb(153,221,255); fill-opacity: 0.4"></path><path d="M11.227398499132844,-33.43349763204806h13.603741419998077v6.801870709999044h-13.603741419998077z" style="fill:rgb(255,255,255)"></path><path d="M-15.417662691453428,15.717673037352158L25.308095725252194,6.3002799882232745L25.308095725252194,-46.34153663247914z" style="fill:rgb(238,238,238); fill-opacity: 0.4"></path><path d="M18.02926907638993,-29.375743782049497L18.02926907638993,-22.80755844439576M25.30809572525219,-46.34153663247914L25.30809572525219,6.300279988223276" style="fill:none;stroke:rgb(0,0,0);stroke-width:1;stroke-linecap:round"></path><path d="M-12.789517222524715,-24.668345585105822L-12.789517222524715,-39.118353327944035L9.344664803005104,-24.636290837454187zM-12.789517222524715,-39.118353327944035L-1.6104287671517439,-41.70339714316348L9.344664803005104,-24.636290837454187z" style="fill:rgb(255,187,187); fill-opacity: 0.4"></path><path d="M14.3576131870546,8.591978123105248L-40.63990325425587,21.309561519693215L-40.63990325425587,-49.77982484542203z" style="fill:rgb(238,238,238); fill-opacity: 0.4"></path><path d="M-12.789516575615403,-39.11835322208084L-12.789516575615403,-24.66834547924262M-12.789516575615403,-39.11835322208084L-1.6104279990923367,-41.70339706531494M-12.789517132843097,-39.11835330175316L-12.789517132843097,-24.668345558914947M-12.789517132843097,-39.11835330175316L-22.724466962721834,-42.01978381001962M-12.789517132843097,-39.11835330175316L-1.6104286774701282,-41.70339711697261" style="fill:none;stroke:rgb(0,0,0);stroke-width:1;stroke-linecap:round"></path><path d="M-1.6104287671517439,-27.253389400325265L-12.789517222524715,-24.668345585105822L9.344664803005104,-24.636290837454187z" style="fill:rgb(255,187,187); fill-opacity: 0.4"></path><path d="M-50.5748530841346,18.408131011426768L4.422663357175858,5.690547614838798" style="fill:none;stroke:rgb(0,0,0);stroke-width:1;stroke-linecap:round"></path><path d="M-1.6104287671517439,-41.70339714316348L-1.6104287671517439,-27.253389400325265L9.344664803005104,-24.636290837454187z" style="fill:rgb(255,187,187); fill-opacity: 0.4"></path><path d="M-12.789516575615403,-24.66834547924262L-1.6104279990923367,-27.253389322476732M-12.789517132843097,-24.668345558914947L-22.724466962721834,-27.5697760671814M-12.789517132843097,-24.668345558914947L-1.6104286774701282,-27.253389374134397" style="fill:none;stroke:rgb(0,0,0);stroke-width:1;stroke-linecap:round"></path><path d="M-50.5748530841346,-52.68125535368847L-50.5748530841346,18.408131011426764L4.422663357175843,-65.39883875027644z" style="fill:rgb(238,238,238); fill-opacity: 0.4"></path><path d="M-12.789517132843104,-39.11835330175316L-12.789517132843104,-24.668345558914947L-22.724466962721845,-42.01978381001961zM-1.610428677470132,-27.2533893741344L-12.789517132843104,-24.668345558914947L-12.789517132843104,-39.11835330175316z" style="fill:rgb(153,221,255); fill-opacity: 0.4"></path><path d="M-12.789517222524715,-39.118353327944035L-12.789517222524715,-24.668345585105822L-1.6104287671517439,-27.253389400325265z" style="fill:rgb(255,187,187); fill-opacity: 0.4"></path><path d="M-1.610428677470132,-41.70339711697261L-12.789517132843104,-39.11835330175316L-22.724466962721845,-42.01978381001961zM-1.610428677470132,-41.70339711697261L-1.610428677470132,-27.2533893741344L-12.789517132843104,-39.11835330175316z" style="fill:rgb(153,221,255); fill-opacity: 0.4"></path><path d="M-12.789517222524715,-39.118353327944035L-1.6104287671517439,-27.253389400325265L-1.6104287671517439,-41.70339714316348z" style="fill:rgb(255,187,187); fill-opacity: 0.4"></path><path d="M-32.5909197497353,-67.17419339547452h13.60374141999804v6.801870709999044h-13.60374141999804zM18.842112228744234,-24.9188741104161h13.603741419998077v6.801870709999044h-13.603741419998077z" style="fill:rgb(255,255,255)"></path><path d="M14.3576131870546,-62.49740824200999L14.3576131870546,8.591978123105248L-40.63990325425587,-49.77982484542203z" style="fill:rgb(238,238,238); fill-opacity: 0.4"></path><path d="M-1.6104279990923367,-27.253389322476732L-1.6104279990923367,-41.70339706531494M-11.545378507348868,-44.60482762523906L-1.6104286774701282,-41.70339711697261M-1.6104286774701282,-41.70339711697261L-1.6104286774701282,-27.253389374134397" style="fill:none;stroke:rgb(0,0,0);stroke-width:1;stroke-linecap:round"></path><path d="M-12.789517132843104,-24.668345558914947L-22.724466962721845,-27.5697760671814L-22.724466962721845,-42.01978381001961z" style="fill:rgb(153,221,255); fill-opacity: 0.4"></path><path d="M4.422663357175843,-65.39883875027644L14.3576131870546,-62.49740824200999L-50.5748530841346,-52.68125535368847z" style="fill:rgb(238,238,238); fill-opacity: 0.4"></path><path d="M-22.724466962721834,-42.01978381001962L-22.724466962721834,-27.5697760671814M-22.724466962721834,-42.01978381001962L-11.545378507348868,-44.60482762523906M-11.545378507348868,-30.154819882400847L-1.6104286774701282,-27.253389374134397" style="fill:none;stroke:rgb(0,0,0);stroke-width:1;stroke-linecap:round"></path><path d="M4.422663357175843,5.6905476148387955L-50.5748530841346,18.408131011426764L-40.63990325425587,21.309561519693215z" style="fill:rgb(238,238,238); fill-opacity: 0.4"></path><path d="M-11.545378507348875,-44.604827625239054L-1.610428677470132,-41.70339711697261L-22.724466962721845,-42.01978381001961zM-1.610428677470132,-27.2533893741344L-11.545378507348875,-30.154819882400854L-12.789517132843104,-24.668345558914947zM-11.545378507348875,-30.154819882400854L-22.724466962721845,-27.5697760671814L-12.789517132843104,-24.668345558914947z" style="fill:rgb(153,221,255); fill-opacity: 0.4"></path><path d="M-22.724466962721834,-27.5697760671814L-11.545378507348868,-30.154819882400847" style="fill:none;stroke:rgb(0,0,0);stroke-width:1;stroke-linecap:round"></path><path d="M-22.724466962721845,-42.01978381001961L-22.724466962721845,-27.5697760671814L-11.545378507348875,-44.604827625239054zM-11.545378507348875,-30.154819882400854L-1.610428677470132,-27.2533893741344L-1.610428677470132,-41.70339711697261zM-11.545378507348875,-44.604827625239054L-11.545378507348875,-30.154819882400854L-1.610428677470132,-41.70339711697261z" style="fill:rgb(153,221,255); fill-opacity: 0.4"></path><path d="M-24.953074124023026,-32.02822932039801h13.603741419998077v6.801870709999044h-13.603741419998077z" style="fill:rgb(255,255,255)"></path><path d="M4.422663357175858,-65.39883875027643L14.3576131870546,-62.497408242009996M14.3576131870546,-62.497408242009996L14.3576131870546,8.59197812310525" style="fill:none;stroke:rgb(0,0,0);stroke-width:1;stroke-linecap:round"></path><path d="M-22.724466962721845,-27.5697760671814L-11.545378507348875,-30.154819882400854L-11.545378507348875,-44.604827625239054z" style="fill:rgb(153,221,255); fill-opacity: 0.4"></path><path d="M-11.545378507348868,-44.60482762523906L-11.545378507348868,-30.154819882400847" style="fill:none;stroke:rgb(0,0,0);stroke-width:1;stroke-linecap:round"></path><path d="M-18.347249127666274,-44.72167028522084h13.603741419998077v6.801870709999044h-13.603741419998077z" style="fill:rgb(255,255,255)"></path><path d="M14.3576131870546,8.591978123105248L4.422663357175843,5.6905476148387955L-40.63990325425587,21.309561519693215zM-50.5748530841346,18.408131011426764L4.422663357175843,5.6905476148387955L4.422663357175843,-65.39883875027644z" style="fill:rgb(238,238,238); fill-opacity: 0.4"></path><path d="M4.422663357175858,-65.39883875027643L4.422663357175858,5.690547614838798" style="fill:none;stroke:rgb(0,0,0);stroke-width:1;stroke-linecap:round"></path><path d="M4.422663357175843,-65.39883875027644L4.422663357175843,5.6905476148387955L14.3576131870546,-62.49740824200999zM4.422663357175843,5.6905476148387955L14.3576131870546,8.591978123105248L14.3576131870546,-62.49740824200999z" style="fill:rgb(238,238,238); fill-opacity: 0.4"></path><path d="M4.422663357175858,5.690547614838798L14.3576131870546,8.59197812310525" style="fill:none;stroke:rgb(0,0,0);stroke-width:1;stroke-linecap:round"></path><path d="M-2.043318396971163,-34.752391781441865h13.603741419998077v6.8018707099990205h-13.603741419998077zM4.620829925554853,5.8975945594125365h13.603741419998077v6.801870709999038h-13.603741419998077z" style="fill:rgb(255,255,255)"></path></svg>